<svg version="1.1" xmlns="http://www.w3.org/2000/svg" viewBox="0 0 2311.4315719457945 309" width="2311.4315719457945" height="309">
  <!-- svg-source:excalidraw -->
  
  <defs>
    <style class="style-fonts">
      @font-face {
        font-family: "Virgil";
        src: url("https://excalidraw.com/Virgil.woff2");
      }
      @font-face {
        font-family: "Cascadia";
        src: url("https://excalidraw.com/Cascadia.woff2");
      }
      @font-face {
        font-family: "Assistant";
        src: url("https://excalidraw.com/Assistant-Regular.woff2");
      }
    </style>
    
  </defs>
  <rect x="0" y="0" width="2311.4315719457945" height="309" fill="#ffffff"></rect><g transform="translate(27 40.47303955682992) rotate(0 194.95001220703125 87.5)"><text x="0" y="17.52" font-family="Virgil, Segoe UI Emoji" font-size="20px" fill="#343a40" text-anchor="start" style="white-space: pre;" direction="ltr" dominant-baseline="alphabetic">query generation prompt: </text><text x="0" y="42.519999999999996" font-family="Virgil, Segoe UI Emoji" font-size="20px" fill="#343a40" text-anchor="start" style="white-space: pre;" direction="ltr" dominant-baseline="alphabetic">user input: </text><text x="0" y="67.52" font-family="Virgil, Segoe UI Emoji" font-size="20px" fill="#343a40" text-anchor="start" style="white-space: pre;" direction="ltr" dominant-baseline="alphabetic">are mavis 600 or mavis 2000 </text><text x="0" y="92.52" font-family="Virgil, Segoe UI Emoji" font-size="20px" fill="#343a40" text-anchor="start" style="white-space: pre;" direction="ltr" dominant-baseline="alphabetic">badminton birdies cheaper right now? </text><text x="0" y="117.52" font-family="Virgil, Segoe UI Emoji" font-size="20px" fill="#343a40" text-anchor="start" style="white-space: pre;" direction="ltr" dominant-baseline="alphabetic">agent generates queries: </text><text x="0" y="142.52" font-family="Virgil, Segoe UI Emoji" font-size="20px" fill="#343a40" text-anchor="start" style="white-space: pre;" direction="ltr" dominant-baseline="alphabetic">what searches do you need to perform</text><text x="0" y="167.52" font-family="Virgil, Segoe UI Emoji" font-size="20px" fill="#343a40" text-anchor="start" style="white-space: pre;" direction="ltr" dominant-baseline="alphabetic">to answer the above question? </text></g><g transform="translate(588.285137655541 23) rotate(0 146.7833251953125 100)"><text x="0" y="17.52" font-family="Virgil, Segoe UI Emoji" font-size="20px" fill="#1e1e1e" text-anchor="start" style="white-space: pre;" direction="ltr" dominant-baseline="alphabetic">queries output: </text><text x="0" y="42.519999999999996" font-family="Virgil, Segoe UI Emoji" font-size="20px" fill="#1e1e1e" text-anchor="start" style="white-space: pre;" direction="ltr" dominant-baseline="alphabetic">1. how much is a tube of 6 </text><text x="0" y="67.52" font-family="Virgil, Segoe UI Emoji" font-size="20px" fill="#1e1e1e" text-anchor="start" style="white-space: pre;" direction="ltr" dominant-baseline="alphabetic">mavis 600 badminton birdies </text><text x="0" y="92.52" font-family="Virgil, Segoe UI Emoji" font-size="20px" fill="#1e1e1e" text-anchor="start" style="white-space: pre;" direction="ltr" dominant-baseline="alphabetic">right now? </text><text x="0" y="117.52" font-family="Virgil, Segoe UI Emoji" font-size="20px" fill="#1e1e1e" text-anchor="start" style="white-space: pre;" direction="ltr" dominant-baseline="alphabetic">2. how much is a tube of 6 </text><text x="0" y="142.52" font-family="Virgil, Segoe UI Emoji" font-size="20px" fill="#1e1e1e" text-anchor="start" style="white-space: pre;" direction="ltr" dominant-baseline="alphabetic">mavis 2000 badminton birdies</text><text x="0" y="167.52" font-family="Virgil, Segoe UI Emoji" font-size="20px" fill="#1e1e1e" text-anchor="start" style="white-space: pre;" direction="ltr" dominant-baseline="alphabetic">right now? </text><text x="0" y="192.52" font-family="Virgil, Segoe UI Emoji" font-size="20px" fill="#1e1e1e" text-anchor="start" style="white-space: pre;" direction="ltr" dominant-baseline="alphabetic"></text></g><g transform="translate(1097.125017398324 31) rotate(0 153.04998779296875 62.5)"><text x="0" y="17.52" font-family="Virgil, Segoe UI Emoji" font-size="20px" fill="#1e1e1e" text-anchor="start" style="white-space: pre;" direction="ltr" dominant-baseline="alphabetic">queries results output: </text><text x="0" y="42.519999999999996" font-family="Virgil, Segoe UI Emoji" font-size="20px" fill="#1e1e1e" text-anchor="start" style="white-space: pre;" direction="ltr" dominant-baseline="alphabetic">1. $34.78 for a tube of 6 </text><text x="0" y="67.52" font-family="Virgil, Segoe UI Emoji" font-size="20px" fill="#1e1e1e" text-anchor="start" style="white-space: pre;" direction="ltr" dominant-baseline="alphabetic">mavis 600 badminton birdies </text><text x="0" y="92.52" font-family="Virgil, Segoe UI Emoji" font-size="20px" fill="#1e1e1e" text-anchor="start" style="white-space: pre;" direction="ltr" dominant-baseline="alphabetic">2. $25.99 for a tube of 6 </text><text x="0" y="117.52" font-family="Virgil, Segoe UI Emoji" font-size="20px" fill="#1e1e1e" text-anchor="start" style="white-space: pre;" direction="ltr" dominant-baseline="alphabetic">mavis 2000 badminton birdies </text></g><g transform="translate(1445.125017398324 24) rotate(0 159.51666259765625 137.5)"><text x="0" y="17.52" font-family="Virgil, Segoe UI Emoji" font-size="20px" fill="#1e1e1e" text-anchor="start" style="white-space: pre;" direction="ltr" dominant-baseline="alphabetic">final prompt:</text><text x="0" y="42.519999999999996" font-family="Virgil, Segoe UI Emoji" font-size="20px" fill="#1e1e1e" text-anchor="start" style="white-space: pre;" direction="ltr" dominant-baseline="alphabetic">queries results output: </text><text x="0" y="67.52" font-family="Virgil, Segoe UI Emoji" font-size="20px" fill="#1e1e1e" text-anchor="start" style="white-space: pre;" direction="ltr" dominant-baseline="alphabetic">1. $34.78 for a tube of 6 </text><text x="0" y="92.52" font-family="Virgil, Segoe UI Emoji" font-size="20px" fill="#1e1e1e" text-anchor="start" style="white-space: pre;" direction="ltr" dominant-baseline="alphabetic">mavis 600 badminton birdies </text><text x="0" y="117.52" font-family="Virgil, Segoe UI Emoji" font-size="20px" fill="#1e1e1e" text-anchor="start" style="white-space: pre;" direction="ltr" dominant-baseline="alphabetic">2. $25.99 for a tube of 6 </text><text x="0" y="142.52" font-family="Virgil, Segoe UI Emoji" font-size="20px" fill="#1e1e1e" text-anchor="start" style="white-space: pre;" direction="ltr" dominant-baseline="alphabetic">mavis 2000 badminton birdies </text><text x="0" y="167.52" font-family="Virgil, Segoe UI Emoji" font-size="20px" fill="#1e1e1e" text-anchor="start" style="white-space: pre;" direction="ltr" dominant-baseline="alphabetic">user input: </text><text x="0" y="192.52" font-family="Virgil, Segoe UI Emoji" font-size="20px" fill="#1e1e1e" text-anchor="start" style="white-space: pre;" direction="ltr" dominant-baseline="alphabetic">are mavis 600 or mavis 2000 </text><text x="0" y="217.52" font-family="Virgil, Segoe UI Emoji" font-size="20px" fill="#1e1e1e" text-anchor="start" style="white-space: pre;" direction="ltr" dominant-baseline="alphabetic">badminton birdies cheaper right </text><text x="0" y="242.52" font-family="Virgil, Segoe UI Emoji" font-size="20px" fill="#1e1e1e" text-anchor="start" style="white-space: pre;" direction="ltr" dominant-baseline="alphabetic">now? </text><text x="0" y="267.52" font-family="Virgil, Segoe UI Emoji" font-size="20px" fill="#1e1e1e" text-anchor="start" style="white-space: pre;" direction="ltr" dominant-baseline="alphabetic"></text></g><g transform="translate(1986.964897141107 46.54085126520613) rotate(0 157.23333740234375 37.5)"><text x="0" y="17.52" font-family="Virgil, Segoe UI Emoji" font-size="20px" fill="#1e1e1e" text-anchor="start" style="white-space: pre;" direction="ltr" dominant-baseline="alphabetic">final output: </text><text x="0" y="42.519999999999996" font-family="Virgil, Segoe UI Emoji" font-size="20px" fill="#1e1e1e" text-anchor="start" style="white-space: pre;" direction="ltr" dominant-baseline="alphabetic">mavis 2000 badminton birdies </text><text x="0" y="67.52" font-family="Virgil, Segoe UI Emoji" font-size="20px" fill="#1e1e1e" text-anchor="start" style="white-space: pre;" direction="ltr" dominant-baseline="alphabetic">are cheaper right now. </text></g><g stroke-linecap="round" transform="translate(22 65.47303955682992) rotate(0 183 38.5)"><path d="M19.25 0 C115.36 -0.85, 208.38 0.43, 346.75 0 M19.25 0 C108.52 1.98, 198.68 2.26, 346.75 0 M346.75 0 C361.15 -0.05, 367.84 7.19, 366 19.25 M346.75 0 C361.19 2.07, 366.76 7.38, 366 19.25 M366 19.25 C364.34 31.51, 364.57 43.93, 366 57.75 M366 19.25 C366.52 28.76, 366.1 39.1, 366 57.75 M366 57.75 C365.81 69.65, 359.32 77.35, 346.75 77 M366 57.75 C365.31 71.78, 359.74 78.26, 346.75 77 M346.75 77 C275.71 75.34, 202.36 73.83, 19.25 77 M346.75 77 C223.55 77.7, 100.87 77.05, 19.25 77 M19.25 77 C8.28 78.95, -1.18 71.54, 0 57.75 M19.25 77 C6.52 74.86, -0.52 72.84, 0 57.75 M0 57.75 C0.81 43.37, -1.66 29.68, 0 19.25 M0 57.75 C-0.57 49.66, -0.48 40.6, 0 19.25 M0 19.25 C0.38 8.16, 7.01 1.44, 19.25 0 M0 19.25 C1.99 6.11, 8.49 0.01, 19.25 0" stroke="#1e1e1e" stroke-width="2" fill="none"></path></g><g stroke-linecap="round" transform="translate(21 139.47303955682992) rotate(0 196 40)"><path d="M20 0 C95.69 -0.01, 169.5 -0.41, 372 0 M20 0 C141.4 -2.75, 264.45 -2.24, 372 0 M372 0 C387.06 -1.17, 393.32 4.68, 392 20 M372 0 C384.06 -0.14, 390.59 5.48, 392 20 M392 20 C390.92 31.12, 391.29 46.84, 392 60 M392 20 C392.31 33.57, 393.32 46.61, 392 60 M392 60 C391.44 74.58, 383.5 80.03, 372 80 M392 60 C390.94 74.09, 385.41 80.08, 372 80 M372 80 C246.31 77.61, 117.35 78.13, 20 80 M372 80 C272.16 79.3, 172.59 78.94, 20 80 M20 80 C5.84 79.07, -0.87 72.39, 0 60 M20 80 C4.57 80.77, -2.19 72.06, 0 60 M0 60 C-1.75 53.11, 0.08 45.58, 0 20 M0 60 C0.47 44.85, 0.96 30.69, 0 20 M0 20 C1.18 5.67, 5.2 0.17, 20 0 M0 20 C-1.51 5.82, 8.62 1.06, 20 0" stroke="#1e1e1e" stroke-width="2" fill="none"></path></g><g stroke-linecap="round" transform="translate(10 31.473039556829917) rotate(0 205.49999999999997 99)"><path d="M32 0 C115.13 1.25, 199.54 1.21, 379 0 M32 0 C134.3 1.36, 238.02 1.95, 379 0 M379 0 C399.86 -1.49, 412.18 8.91, 411 32 M379 0 C401.75 -0.86, 412.86 10.74, 411 32 M411 32 C411.33 72.05, 412.16 113.33, 411 166 M411 32 C411.44 70.21, 411.99 109.75, 411 166 M411 166 C412.04 186.03, 401.75 199.55, 379 198 M411 166 C413.07 187.87, 399.81 199.88, 379 198 M379 198 C298.73 196.78, 219.75 195.58, 32 198 M379 198 C249 197, 118.15 196.99, 32 198 M32 198 C11.62 198.29, -0.2 188.74, 0 166 M32 198 C10.56 199.64, 1.93 187.96, 0 166 M0 166 C1.71 131.45, -0.68 101.42, 0 32 M0 166 C1.31 134.01, 0.9 101.49, 0 32 M0 32 C-1.3 11.1, 9.81 -1.88, 32 0 M0 32 C1.87 10.34, 12.04 2.11, 32 0" stroke="#1e1e1e" stroke-width="2" fill="none"></path></g><g stroke-linecap="round" transform="translate(580.285137655541 16) rotate(0 155.5 97.5)"><path d="M32 0 C102.59 -0.39, 171.23 -2.97, 279 0 M32 0 C120.84 -0.51, 209.25 -1.85, 279 0 M279 0 C301.62 1.66, 310.37 11.88, 311 32 M279 0 C298.91 0.86, 309.32 8.87, 311 32 M311 32 C310.25 78.5, 311.29 123.28, 311 163 M311 32 C310.67 61.45, 310.88 89.87, 311 163 M311 163 C309.16 183.71, 299.12 193.51, 279 195 M311 163 C311.64 185.63, 299.28 197.23, 279 195 M279 195 C204.02 195.1, 132.5 194.04, 32 195 M279 195 C221.15 194.16, 162.15 195.39, 32 195 M32 195 C9.66 194.62, 0.16 185.88, 0 163 M32 195 C8.73 195.15, 1.41 185.48, 0 163 M0 163 C1.05 114.51, 0.7 63.33, 0 32 M0 163 C1.5 135.12, 1.82 106.9, 0 32 M0 32 C0.47 12.37, 10.33 -1.32, 32 0 M0 32 C-0.48 12.16, 10.42 0.53, 32 0" stroke="#1e1e1e" stroke-width="2" fill="none"></path></g><g stroke-linecap="round" transform="translate(1088.125017398324 28) rotate(0 155 68)"><path d="M32 0 C129.51 -2.97, 228.07 -1.92, 278 0 M32 0 C118.9 2.19, 207.24 2.53, 278 0 M278 0 C297.46 1.8, 310.73 10.33, 310 32 M278 0 C298.67 -0.99, 311.02 9.02, 310 32 M310 32 C307.9 57.14, 310.14 81.47, 310 104 M310 32 C309.09 53.24, 308.45 75.64, 310 104 M310 104 C308.36 126.35, 299.21 135.2, 278 136 M310 104 C309.43 125.04, 300.1 136.19, 278 136 M278 136 C219.65 134.14, 159.81 135.43, 32 136 M278 136 C198.49 137.62, 117.82 137.61, 32 136 M32 136 C10.89 135.34, 1.04 123.64, 0 104 M32 136 C8.81 137.48, -1.33 125.97, 0 104 M0 104 C0.96 81.44, 1.22 60.66, 0 32 M0 104 C-0.74 79.75, 0.87 53.73, 0 32 M0 32 C-0.91 11.45, 9.55 -1.87, 32 0 M0 32 C0.19 12.83, 9.61 -1.45, 32 0" stroke="#1e1e1e" stroke-width="2" fill="none"></path></g><g stroke-linecap="round" transform="translate(1432.125017398324 50) rotate(0 166 61.5)"><path d="M30.75 0 C137.17 -2.47, 240.97 -0.65, 301.25 0 M30.75 0 C139.11 -0.15, 247.13 -0.36, 301.25 0 M301.25 0 C322.86 -0.03, 333.13 12.01, 332 30.75 M301.25 0 C321.55 -0.41, 332.27 10.86, 332 30.75 M332 30.75 C330.68 44.05, 333.63 54.18, 332 92.25 M332 30.75 C331.53 54.51, 332.2 78.05, 332 92.25 M332 92.25 C330.45 114.66, 323.16 121.97, 301.25 123 M332 92.25 C331.64 113.17, 320.3 124.94, 301.25 123 M301.25 123 C226.83 123.1, 148.94 121.55, 30.75 123 M301.25 123 C219.05 123.65, 138.21 123.35, 30.75 123 M30.75 123 C8.56 123.6, -1.7 111.97, 0 92.25 M30.75 123 C8.98 124.7, -0.48 115.04, 0 92.25 M0 92.25 C-0.3 80.88, 0.57 66.39, 0 30.75 M0 92.25 C0.2 79.28, 1.1 64.91, 0 30.75 M0 30.75 C0.89 11.14, 8.64 -0.46, 30.75 0 M0 30.75 C-1.96 8.3, 12.26 1.38, 30.75 0" stroke="#1e1e1e" stroke-width="2" fill="none"></path></g><g stroke-linecap="round" transform="translate(1434.125017398324 174) rotate(0 164 51.5)"><path d="M25.75 0 C108.16 -0.03, 192.99 -1.82, 302.25 0 M25.75 0 C81.77 -1.17, 136.65 0.35, 302.25 0 M302.25 0 C320.83 1.5, 329.08 9.54, 328 25.75 M302.25 0 C320.08 0.31, 325.91 8.1, 328 25.75 M328 25.75 C327.7 45.34, 327.62 64.47, 328 77.25 M328 25.75 C326.62 37.86, 327.7 51.77, 328 77.25 M328 77.25 C328.96 93.97, 319.71 104.17, 302.25 103 M328 77.25 C328.18 92.68, 320.55 102.38, 302.25 103 M302.25 103 C228.31 103.58, 154.83 103.12, 25.75 103 M302.25 103 C243.21 103.67, 184.73 104.01, 25.75 103 M25.75 103 C6.58 101.81, -1.23 93.99, 0 77.25 M25.75 103 C8.95 102.62, -0.43 92.62, 0 77.25 M0 77.25 C-1.42 57.7, -1.35 40.82, 0 25.75 M0 77.25 C-0.51 63.83, 0.18 47.94, 0 25.75 M0 25.75 C-0.8 7.85, 9.44 0.94, 25.75 0 M0 25.75 C1.41 9.97, 8.8 -1.81, 25.75 0" stroke="#1e1e1e" stroke-width="2" fill="none"></path></g><g stroke-linecap="round" transform="translate(1422.125017398324 10) rotate(0 176 139.5)"><path d="M32 0 C99.63 1.5, 166.89 1.7, 320 0 M32 0 C121.29 -0.54, 210.71 -0.48, 320 0 M320 0 C343.04 1.87, 353.62 12.28, 352 32 M320 0 C342.62 0.31, 352.99 9.43, 352 32 M352 32 C352.14 80.89, 351.7 132.39, 352 247 M352 32 C351.52 77.33, 350.4 124.27, 352 247 M352 247 C350.9 269.91, 340.2 278.05, 320 279 M352 247 C352.32 268.04, 340.97 278.87, 320 279 M320 279 C208.52 279.41, 98.04 279.71, 32 279 M320 279 C232.01 279.64, 143.8 280.65, 32 279 M32 279 C11.25 279.26, -1.56 268.11, 0 247 M32 279 C11.5 280.56, -0.53 266.92, 0 247 M0 247 C0.45 162.06, 0.74 75.65, 0 32 M0 247 C-0.74 185.16, 0.14 122.85, 0 32 M0 32 C-0.44 12.09, 11.67 1.96, 32 0 M0 32 C-1.28 10.78, 11.19 1.71, 32 0" stroke="#1e1e1e" stroke-width="2" fill="none"></path></g><g stroke-linecap="round" transform="translate(1975.964897141107 34.54085126520613) rotate(0 156.5 46)"><path d="M23 0 C92.61 -2.74, 162.34 -0.82, 290 0 M23 0 C85.95 -1.79, 149.48 -1.58, 290 0 M290 0 C304.86 -0.09, 314.64 8.16, 313 23 M290 0 C303.36 0.39, 311.47 8.65, 313 23 M313 23 C312.32 36.22, 312.83 48.79, 313 69 M313 23 C312.65 36.1, 311.93 47.98, 313 69 M313 69 C311.84 85.21, 305.4 91.78, 290 92 M313 69 C314.17 85.93, 307.53 92.03, 290 92 M290 92 C188.67 90.99, 84.21 92.42, 23 92 M290 92 C191.81 90.03, 92.84 91.14, 23 92 M23 92 C7.76 91.89, -0.45 83.8, 0 69 M23 92 C8.9 93.53, -1.96 84.74, 0 69 M0 69 C-0.45 58.52, -1.83 45.41, 0 23 M0 69 C-0.03 55.49, 0.06 42.41, 0 23 M0 23 C1.9 8.24, 5.89 0.07, 23 0 M0 23 C-1.98 9.33, 7.05 -0.29, 23 0" stroke="#1e1e1e" stroke-width="2" fill="none"></path></g><g stroke-linecap="round"><g transform="translate(1396.125017398324 99.21808767072076) rotate(0 19.5 2.8909561646396185)"><path d="M-0.22 -0.01 C6.28 0.93, 32.15 5.19, 38.66 6.11 M0.67 -0.49 C7.37 0.53, 33.42 4.23, 39.71 5.31" stroke="#1e1e1e" stroke-width="2" fill="none"></path></g><g transform="translate(1396.125017398324 99.21808767072076) rotate(0 19.5 2.8909561646396185)"><path d="M20.38 9.14 C24.99 7.64, 30.24 7.06, 39.71 5.31 M20.38 9.14 C25.62 7.8, 30.21 7.52, 39.71 5.31" stroke="#1e1e1e" stroke-width="2" fill="none"></path></g><g transform="translate(1396.125017398324 99.21808767072076) rotate(0 19.5 2.8909561646396185)"><path d="M22.43 -4.18 C26.61 -2.48, 31.37 0.14, 39.71 5.31 M22.43 -4.18 C27.19 -2.18, 31.27 0.88, 39.71 5.31" stroke="#1e1e1e" stroke-width="2" fill="none"></path></g></g><mask></mask><g stroke-linecap="round" transform="translate(925.5351724521894 28.361912980541547) rotate(0 69.32516771984524 69.32516771984524)"><path d="M93.29 4.45 C102.79 6.46, 112.63 12.85, 119.56 19.86 C126.5 26.88, 131.89 36.77, 134.91 46.52 C137.92 56.28, 138.94 68.2, 137.64 78.41 C136.33 88.62, 132.35 99.33, 127.08 107.79 C121.8 116.24, 114.42 123.94, 105.98 129.12 C97.54 134.3, 86.55 137.88, 76.45 138.87 C66.35 139.87, 54.85 138.49, 45.37 135.07 C35.89 131.65, 26.65 125.44, 19.59 118.34 C12.53 111.24, 6.29 102.12, 3.01 92.48 C-0.27 82.84, -1.36 70.54, -0.1 60.49 C1.16 50.45, 4.96 40.66, 10.57 32.21 C16.19 23.76, 24.94 15.29, 33.57 9.82 C42.2 4.34, 51.66 -0.13, 62.37 -0.63 C73.08 -1.14, 91.05 4.9, 97.84 6.79 C104.62 8.68, 103.49 9.84, 103.11 10.7 M90.52 2.63 C99.84 4.28, 110.97 10.8, 118.22 17.96 C125.46 25.12, 130.44 35.91, 133.99 45.59 C137.54 55.27, 140.29 66.07, 139.51 76.05 C138.74 86.02, 134.75 96.76, 129.34 105.44 C123.94 114.12, 115.29 122.64, 107.07 128.14 C98.84 133.63, 89.94 137.3, 79.98 138.4 C70.02 139.49, 57.12 137.66, 47.29 134.7 C37.46 131.75, 28.09 127.55, 21 120.66 C13.9 113.76, 8.27 102.75, 4.72 93.33 C1.17 83.91, -1.38 73.98, -0.31 64.14 C0.76 54.29, 5.9 42.95, 11.14 34.24 C16.38 25.54, 22.83 17.65, 31.14 11.89 C39.46 6.13, 50.85 1.13, 61.04 -0.32 C71.22 -1.77, 87.33 2.38, 92.28 3.17 C97.23 3.96, 91.48 3.41, 90.74 4.4" stroke="#1e1e1e" stroke-width="2" fill="none"></path></g><g stroke-linecap="round" transform="translate(440.25899841327276 37.48364557525804) rotate(0 59.291261865657106 59.29126186565708)"><path d="M47.94 1.12 C56.25 -1.5, 67.59 0.25, 76.24 2.99 C84.89 5.74, 93.31 11.27, 99.84 17.59 C106.37 23.9, 112.45 32.41, 115.41 40.87 C118.36 49.33, 119.13 59.32, 117.56 68.35 C115.99 77.39, 111.61 87.51, 106 95.06 C100.39 102.62, 91.96 109.75, 83.91 113.68 C75.86 117.61, 66.66 119.3, 57.71 118.63 C48.76 117.97, 38.25 114.3, 30.2 109.69 C22.14 105.08, 14.52 98.71, 9.4 90.96 C4.27 83.21, 0.37 72.45, -0.55 63.17 C-1.47 53.89, 0.21 43.51, 3.86 35.29 C7.5 27.07, 13.03 19.51, 21.32 13.84 C29.61 8.16, 47.41 3.5, 53.61 1.25 C59.82 -1, 58.46 -0.39, 58.55 0.34 M52.98 1.6 C61.59 -0.07, 73.25 0.9, 81.93 4.06 C90.61 7.22, 99.39 13.24, 105.06 20.58 C110.74 27.91, 114.17 39.06, 115.95 48.08 C117.74 57.09, 117.93 66.1, 115.77 74.65 C113.62 83.2, 109.4 92.44, 103.01 99.37 C96.61 106.31, 86.36 112.98, 77.41 116.26 C68.45 119.53, 58.14 120.83, 49.28 119.01 C40.42 117.18, 31.5 111.24, 24.27 105.31 C17.04 99.37, 9.74 91.45, 5.91 83.39 C2.07 75.33, 0.74 65.77, 1.26 56.93 C1.78 48.09, 4.85 38.54, 9.02 30.37 C13.18 22.21, 18.45 12.73, 26.24 7.94 C34.03 3.15, 51.25 2.9, 55.78 1.65 C60.31 0.39, 53.44 -0.48, 53.43 0.42" stroke="#1e1e1e" stroke-width="2" fill="none"></path></g><g stroke-linecap="round" transform="translate(1806.694541101801 15.591487347938426) rotate(0 67.5008212009019 67.5008212009019)"><path d="M71.5 0.45 C80.9 0.1, 91.7 4.87, 100.14 9.37 C108.59 13.87, 116.45 19.81, 122.18 27.45 C127.92 35.09, 132.99 45.56, 134.55 55.2 C136.12 64.84, 134.31 75.84, 131.57 85.29 C128.82 94.74, 124.33 104.41, 118.08 111.91 C111.84 119.41, 103.29 126.6, 94.09 130.3 C84.88 133.99, 72.76 134.75, 62.85 134.07 C52.94 133.4, 43.06 130.97, 34.62 126.23 C26.17 121.48, 17.88 113.49, 12.17 105.63 C6.46 97.76, 2.06 88.53, 0.35 79.02 C-1.37 69.51, -0.99 57.89, 1.89 48.55 C4.77 39.22, 11.06 30.27, 17.63 22.99 C24.2 15.7, 31.45 8.63, 41.3 4.85 C51.15 1.07, 69.91 0.69, 76.75 0.3 C83.59 -0.09, 82.33 1.4, 82.34 2.52 M60.75 1.24 C69.75 -0.57, 82.27 0.12, 91.74 3.5 C101.21 6.89, 111.02 14.39, 117.57 21.56 C124.11 28.73, 128.15 37.26, 131.01 46.53 C133.86 55.8, 135.82 67.61, 134.69 77.16 C133.55 86.71, 129.87 95.73, 124.2 103.84 C118.52 111.95, 109.05 120.57, 100.63 125.82 C92.2 131.07, 83.23 134.39, 73.64 135.34 C64.05 136.28, 52.14 134.77, 43.09 131.47 C34.04 128.17, 25.76 122.62, 19.35 115.53 C12.94 108.44, 7.61 98.25, 4.64 88.92 C1.66 79.59, 0.16 69.39, 1.49 59.53 C2.82 49.67, 7.48 38.29, 12.62 29.77 C17.76 21.24, 24.03 13.1, 32.3 8.37 C40.57 3.64, 57.25 2.67, 62.24 1.39 C67.23 0.1, 62.47 -0.47, 62.23 0.65" stroke="#1e1e1e" stroke-width="2" fill="none"></path></g><g transform="translate(465.7998496784788 86.74100158672695) rotate(0 35.03333282470706 12.5)"><text x="0" y="17.52" font-family="Virgil, Segoe UI Emoji" font-size="20px" fill="#1e1e1e" text-anchor="start" style="white-space: pre;" direction="ltr" dominant-baseline="alphabetic">Gen AI</text></g><g transform="translate(1835.884085404894 63.02449684046417) rotate(0 35.03333282470703 12.5)"><text x="0" y="17.52" font-family="Virgil, Segoe UI Emoji" font-size="20px" fill="#1e1e1e" text-anchor="start" style="white-space: pre;" direction="ltr" dominant-baseline="alphabetic">Gen AI</text></g><g transform="translate(982.0899145394316 86.74100158672695) rotate(0 15.066666603088379 12.5)"><text x="0" y="17.52" font-family="Virgil, Segoe UI Emoji" font-size="20px" fill="#1e1e1e" text-anchor="start" style="white-space: pre;" direction="ltr" dominant-baseline="alphabetic">DB</text></g><g stroke-linecap="round"><g transform="translate(418.3668401859533 92.21404114355693) rotate(0 13.682598892074736 0.9121732594716718)"><path d="M0.38 -0.49 C5.02 -0.13, 23.4 1.46, 27.85 1.81 M-0.08 0.45 C4.53 0.94, 23.22 2.23, 27.67 2.5" stroke="#1e1e1e" stroke-width="2" fill="none"></path></g><g transform="translate(418.3668401859533 92.21404114355693) rotate(0 13.682598892074736 0.9121732594716718)"><path d="M14.51 6.33 C17.88 5.74, 22.43 3.65, 27.67 2.5 M14.51 6.33 C17.7 5.53, 21.02 4.58, 27.67 2.5" stroke="#1e1e1e" stroke-width="2" fill="none"></path></g><g transform="translate(418.3668401859533 92.21404114355693) rotate(0 13.682598892074736 0.9121732594716718)"><path d="M15.12 -3.03 C18.28 -0.8, 22.65 -0.07, 27.67 2.5 M15.12 -3.03 C18.17 -1.47, 21.34 -0.06, 27.67 2.5" stroke="#1e1e1e" stroke-width="2" fill="none"></path></g></g><mask></mask><g stroke-linecap="round"><g transform="translate(551.544136068814 72.14622943518071) rotate(0 18.243465189432868 -15.506945411018023)"><path d="M0.16 1.16 C6.1 -4.1, 30.91 -25.4, 36.78 -30.67 M-1.21 0.72 C4.49 -5, 29.5 -27.07, 35.99 -32.62" stroke="#1e1e1e" stroke-width="2" fill="none"></path></g><g transform="translate(551.544136068814 72.14622943518071) rotate(0 18.243465189432868 -15.506945411018023)"><path d="M24.42 -11.66 C30.78 -19.49, 34 -30.14, 35.99 -32.62 M24.42 -11.66 C27.74 -19.16, 33.01 -25.98, 35.99 -32.62" stroke="#1e1e1e" stroke-width="2" fill="none"></path></g><g transform="translate(551.544136068814 72.14622943518071) rotate(0 18.243465189432868 -15.506945411018023)"><path d="M13.65 -24 C24.38 -26.95, 31.87 -32.7, 35.99 -32.62 M13.65 -24 C20.69 -27.36, 29.67 -29.94, 35.99 -32.62" stroke="#1e1e1e" stroke-width="2" fill="none"></path></g></g><mask></mask><g stroke-linecap="round"><g transform="translate(892.6969351112101 68.49753639729414) rotate(0 17.754861726589297 3.381878424112216)"><path d="M-0.18 -0.54 C5.76 0.65, 29.49 5.88, 35.35 7.09 M0.73 0.36 C6.6 1.41, 28.95 5.14, 34.84 6.3" stroke="#1e1e1e" stroke-width="2" fill="none"></path></g><g transform="translate(892.6969351112101 68.49753639729414) rotate(0 17.754861726589297 3.381878424112216)"><path d="M17.03 9.38 C20.66 8.37, 26.62 7.07, 34.84 6.3 M17.03 9.38 C21.82 8.56, 27.64 7.85, 34.84 6.3" stroke="#1e1e1e" stroke-width="2" fill="none"></path></g><g transform="translate(892.6969351112101 68.49753639729414) rotate(0 17.754861726589297 3.381878424112216)"><path d="M19.22 -2.79 C22.28 -0.71, 27.68 1.07, 34.84 6.3 M19.22 -2.79 C23.32 -0.07, 28.5 2.78, 34.84 6.3" stroke="#1e1e1e" stroke-width="2" fill="none"></path></g></g><mask></mask><g stroke-linecap="round"><g transform="translate(892.285137655541 144.19526288370758) rotate(0 20.69807130895373 -5.913734659701078)"><path d="M0.24 -0.01 C7.13 -1.88, 34.75 -9.62, 41.69 -11.64 M-0.3 -0.49 C6.51 -2.49, 34.39 -10.64, 41.4 -12.5" stroke="#1e1e1e" stroke-width="2" fill="none"></path></g><g transform="translate(892.285137655541 144.19526288370758) rotate(0 20.69807130895373 -5.913734659701078)"><path d="M23.92 0.06 C30.29 -4.01, 37 -8.21, 41.4 -12.5 M23.92 0.06 C28.77 -2.76, 32.73 -6.57, 41.4 -12.5" stroke="#1e1e1e" stroke-width="2" fill="none"></path></g><g transform="translate(892.285137655541 144.19526288370758) rotate(0 20.69807130895373 -5.913734659701078)"><path d="M19.94 -14.12 C27.7 -13.05, 35.86 -12.11, 41.4 -12.5 M19.94 -14.12 C25.7 -13.45, 30.65 -13.77, 41.4 -12.5" stroke="#1e1e1e" stroke-width="2" fill="none"></path></g></g><mask></mask><g stroke-linecap="round"><g transform="translate(1060.5368148539933 79.44361551095386) rotate(0 15.506945411018023 -4.5608662973582454)"><path d="M0.08 0.18 C5.19 -1.5, 25.44 -8.09, 30.69 -9.59 M-0.55 -0.2 C4.75 -1.6, 26.42 -7.54, 31.75 -9.14" stroke="#1e1e1e" stroke-width="2" fill="none"></path></g><g transform="translate(1060.5368148539933 79.44361551095386) rotate(0 15.506945411018023 -4.5608662973582454)"><path d="M18.65 0.34 C22.77 -2.97, 25.69 -4.54, 31.75 -9.14 M18.65 0.34 C23.21 -2.85, 28.13 -6.36, 31.75 -9.14" stroke="#1e1e1e" stroke-width="2" fill="none"></path></g><g transform="translate(1060.5368148539933 79.44361551095386) rotate(0 15.506945411018023 -4.5608662973582454)"><path d="M15.63 -10.3 C20.69 -10.45, 24.52 -8.86, 31.75 -9.14 M15.63 -10.3 C21.2 -9.74, 27.19 -9.49, 31.75 -9.14" stroke="#1e1e1e" stroke-width="2" fill="none"></path></g></g><mask></mask><g stroke-linecap="round"><g transform="translate(1062.3611613729367 106.80881329510333) rotate(0 14.594772151546408 6.385212816301532)"><path d="M0.51 0.05 C5.47 2.25, 24.65 10.57, 29.36 12.74 M0.12 -0.39 C5.04 1.92, 24.06 11.34, 29.01 13.43" stroke="#1e1e1e" stroke-width="2" fill="none"></path></g><g transform="translate(1062.3611613729367 106.80881329510333) rotate(0 14.594772151546408 6.385212816301532)"><path d="M13.14 12.08 C16.96 12.57, 20.58 11.98, 29.01 13.43 M13.14 12.08 C19.1 12.56, 24.69 12.86, 29.01 13.43" stroke="#1e1e1e" stroke-width="2" fill="none"></path></g><g transform="translate(1062.3611613729367 106.80881329510333) rotate(0 14.594772151546408 6.385212816301532)"><path d="M17.72 2.19 C20.42 5.03, 22.96 6.77, 29.01 13.43 M17.72 2.19 C22.05 6.15, 26.02 9.93, 29.01 13.43" stroke="#1e1e1e" stroke-width="2" fill="none"></path></g></g><mask></mask><g stroke-linecap="round"><g transform="translate(1773.856303760822 33.834952537371464) rotate(0 22.80433148679117 10.946079113659778)"><path d="M0.54 -0.69 C8.27 3.24, 39.22 18.92, 46.78 22.53 M-0.64 1.57 C7 5.24, 38.79 17.37, 46.44 20.74" stroke="#1e1e1e" stroke-width="2" fill="none"></path></g><g transform="translate(1773.856303760822 33.834952537371464) rotate(0 22.80433148679117 10.946079113659778)"><path d="M21.46 19.79 C28.58 21.94, 39.05 20.75, 46.44 20.74 M21.46 19.79 C26.08 19.22, 31.72 19.64, 46.44 20.74" stroke="#1e1e1e" stroke-width="2" fill="none"></path></g><g transform="translate(1773.856303760822 33.834952537371464) rotate(0 22.80433148679117 10.946079113659778)"><path d="M27.91 3.95 C32.76 11.37, 41.09 15.43, 46.44 20.74 M27.91 3.95 C31.22 6.9, 35.45 10.79, 46.44 20.74" stroke="#1e1e1e" stroke-width="2" fill="none"></path></g></g><mask></mask><g stroke-linecap="round"><g transform="translate(1941.696183503605 83.09230854884049) rotate(0 18.243465189432982 1.8243465189432868)"><path d="M-0.23 0.03 C5.96 0.51, 30.88 2.45, 36.94 3.14 M0.66 -0.43 C6.83 0.07, 30.64 2.94, 36.74 3.58" stroke="#1e1e1e" stroke-width="2" fill="none"></path></g><g transform="translate(1941.696183503605 83.09230854884049) rotate(0 18.243465189432982 1.8243465189432868)"><path d="M18.92 7.88 C23.67 7.53, 27.5 5.01, 36.74 3.58 M18.92 7.88 C26.25 5.86, 33.39 4.11, 36.74 3.58" stroke="#1e1e1e" stroke-width="2" fill="none"></path></g><g transform="translate(1941.696183503605 83.09230854884049) rotate(0 18.243465189432982 1.8243465189432868)"><path d="M20.32 -4.59 C24.74 -1.64, 28.2 -0.86, 36.74 3.58 M20.32 -4.59 C27.04 -1.64, 33.62 1.55, 36.74 3.58" stroke="#1e1e1e" stroke-width="2" fill="none"></path></g></g><mask></mask></svg>